<?xml version="1.0" standalone="no"?>
<!DOCTYPE svg PUBLIC "-//W3C//DTD SVG 20010904//EN"
 "http://www.w3.org/TR/2001/REC-SVG-20010904/DTD/svg10.dtd">
<svg version="1.0" xmlns="http://www.w3.org/2000/svg"
 width="512.000000pt" height="512.000000pt" viewBox="0 0 512.000000 512.000000"
 preserveAspectRatio="xMidYMid meet">
<metadata>
Created by potrace 1.11, written by Peter Selinger 2001-2013
</metadata>
<g transform="translate(0.000000,512.000000) scale(0.100000,-0.100000)"
fill="#000000" stroke="none">
<path d="M2460 4783 c0 -3 334 -511 401 -610 27 -40 49 -75 49 -78 0 -3 5 -11
11 -18 5 -7 88 -131 184 -277 284 -434 645 -983 649 -987 3 -3 61 84 331 497
82 124 194 295 250 380 56 85 145 220 197 300 52 80 152 233 223 340 223 339
272 414 282 435 11 20 9 20 -1283 20 -712 0 -1294 -1 -1294 -2z"/>
<path d="M26 4270 c-8 -3 22 -58 93 -165 58 -89 187 -284 286 -435 337 -515
364 -555 372 -565 5 -5 12 -17 16 -25 3 -8 56 -89 116 -180 61 -91 156 -235
211 -320 56 -85 173 -263 260 -395 87 -132 199 -303 249 -380 207 -318 420
-641 430 -652 6 -7 11 -14 11 -16 0 -3 40 -65 88 -138 120 -182 270 -410 361
-551 42 -64 78 -117 81 -117 3 -1 41 54 85 122 43 67 83 127 88 132 4 6 26 39
49 75 48 76 189 291 380 580 74 113 179 273 233 355 54 83 135 206 180 275 45
69 127 194 182 277 l101 153 -78 117 c-90 138 -261 399 -415 633 -276 420
-378 575 -463 705 -50 77 -147 225 -215 329 l-124 188 -1282 2 c-705 0 -1288
-1 -1295 -4z"/>
</g>
</svg>
